Coordinates
version=1
nRows=26
nColumns=22
inDegrees=yes

Units are S.I. units (second, meters, Newtons, ...)
If the header above contains a line with 'inDegrees', this indicates whether rotational values are in degrees (yes) or radians (no).

endheader
time	pelvis_tilt	pelvis_list	pelvis_rotation	pelvis_tx	pelvis_ty	pelvis_tz	hip_flexion_r	hip_adduction_r	hip_rotation_r	knee_angle_r	ankle_angle_r	subtalar_angle_r	hip_flexion_l	hip_adduction_l	hip_rotation_l	knee_angle_l	ankle_angle_l	subtalar_angle_l	lumbar_extension	lumbar_bending	lumbar_rotation
      0.01000000	     -6.02470898	     -2.88794186	     -1.56915575	      1.14720759	      0.94100361	     -0.27969331	      7.65929089	      3.51261479	     -5.99699753	    -11.90899862	     10.88859546	     -2.48109619	      8.04286431	     -4.29501772	     -5.19185991	    -13.88359229	     11.42194881	     -3.81878484	     -0.83854973	      0.47236176	     -0.07376815
      0.02000000	     -6.03095404	     -2.88112529	     -1.56792046	      1.14718418	      0.94100246	     -0.27969787	      7.66849260	      3.50581263	     -5.99608945	    -11.91072292	     10.89115993	     -2.48341662	      8.04277617	     -4.28845101	     -5.21035761	    -13.86652969	     11.41811161	     -3.81787403	     -0.82591178	      0.46566633	     -0.10431417
      0.03000000	     -6.05867670	     -2.86422231	     -1.56975825	      1.14715624	      0.94097966	     -0.27967456	      7.70547516	      3.48953105	     -6.00884271	    -11.91904742	     10.89085174	     -2.49158693	      8.05783811	     -4.27367987	     -5.23841303	    -13.83357235	     11.38640480	     -3.80807896	     -0.78495603	      0.44340911	     -0.12517712
      0.04000000	     -6.07349334	     -2.86518373	     -1.56657368	      1.14712579	      0.94097824	     -0.27963111	      7.72302778	      3.49516651	     -6.01309281	    -11.91935335	     10.88748685	     -2.49373784	      8.05265451	     -4.27939340	     -5.27043691	    -13.78764354	     11.38151905	     -3.80583124	     -0.76016468	      0.44063051	     -0.16479731
      0.05000000	     -6.09374657	     -2.86706267	     -1.56196811	      1.14710155	      0.94097961	     -0.27955462	      7.74198914	      3.50406024	     -6.02950473	    -11.91189270	     10.87771676	     -2.49601310	      8.04548140	     -4.28924717	     -5.31488142	    -13.72644126	     11.36435839	     -3.79975913	     -0.72499139	      0.43350297	     -0.20055010
      0.06000000	     -6.11658575	     -2.86990230	     -1.56671951	      1.14704970	      0.94098919	     -0.27944933	      7.76547950	      3.51528522	     -6.05404141	    -11.90089319	     10.85847815	     -2.49905669	      8.03801790	     -4.30251181	     -5.36648478	    -13.65871354	     11.33257478	     -3.78898605	     -0.69127112	      0.42778823	     -0.23355920
      0.07000000	     -6.12982820	     -2.87690495	     -1.56391768	      1.14699590	      0.94101384	     -0.27933456	      7.78003593	      3.53195298	     -6.07298213	    -11.89574854	     10.83894875	     -2.50138819	      8.02675588	     -4.32116536	     -5.41354457	    -13.59987720	     11.30554010	     -3.77961661	     -0.66552849	      0.42173070	     -0.26429923
      0.08000000	     -6.13270194	     -2.88684375	     -1.57412542	      1.14692622	      0.94105343	     -0.27920992	      7.78562818	      3.55174454	     -6.09235398	    -11.88914757	     10.81430494	     -2.50377412	      8.01349019	     -4.34316695	     -5.44971007	    -13.56230781	     11.27567172	     -3.76907458	     -0.65588439	      0.42206798	     -0.29015127
      0.09000000	     -6.11004168	     -2.90827443	     -1.58199026	      1.14683933	      0.94112749	     -0.27911208	      7.76284684	      3.58223544	     -6.10655418	    -11.87821006	     10.77436053	     -2.50811231	      7.99495572	     -4.37516862	     -5.46782802	    -13.56312554	     11.24536827	     -3.75597164	     -0.68289432	      0.43952133	     -0.30823683
      0.10000000	     -6.05104292	     -2.94097413	     -1.58715908	      1.14681955	      0.94123340	     -0.27904400	      7.67809959	      3.62337867	     -6.11583070	    -11.83540682	     10.74177110	     -2.51795765	      7.94629914	     -4.41428318	     -5.44452777	    -13.59374941	     11.27350914	     -3.75202591	     -0.74224018	      0.47233764	     -0.33462868
      0.11000000	     -6.01987693	     -2.94698204	     -1.61068524	      1.14676871	      0.94128615	     -0.27898733	      7.65378290	      3.63305722	     -6.10913198	    -11.84407616	     10.73504330	     -2.51934751	      7.94085215	     -4.42360927	     -5.41400308	    -13.65079913	     11.27053907	     -3.74983656	     -0.77092075	      0.47882473	     -0.33198791
      0.12000000	     -5.96393487	     -2.98194799	     -1.62670344	      1.14676788	      0.94136549	     -0.27896148	      7.57574912	      3.67398971	     -6.10606881	    -11.80951816	     10.71709420	     -2.52310118	      7.90948141	     -4.46246832	     -5.38585745	    -13.71425639	     11.31189232	     -3.75532398	     -0.82527296	      0.52488707	     -0.35773401
      0.13000000	     -5.93938109	     -2.98458314	     -1.65876992	      1.14674493	      0.94139769	     -0.27894113	      7.55418164	      3.67819897	     -6.09454563	    -11.81257176	     10.71069545	     -2.52362696	      7.90565069	     -4.46511212	     -5.36023194	    -13.76792111	     11.31240153	     -3.75494694	     -0.84265672	      0.53477666	     -0.34968613
      0.14000000	     -5.91612808	     -2.99589417	     -1.68997593	      1.14673658	      0.94142478	     -0.27893182	      7.52406848	      3.69299400	     -6.06729087	    -11.80034711	     10.70665419	     -2.52478147	      7.89938375	     -4.47791087	     -5.35395871	    -13.81580424	     11.32995341	     -3.76016439	     -0.85724784	      0.55834450	     -0.35519993
      0.15000000	     -5.91119965	     -2.99431708	     -1.71841056	      1.14675617	      0.94142909	     -0.27894376	      7.51803040	      3.69116853	     -6.06891665	    -11.79812322	     10.70626694	     -2.52508842	      7.89257018	     -4.47370271	     -5.35066968	    -13.82701860	     11.33042095	     -3.76035771	     -0.84484549	      0.56892184	     -0.36291687
      0.16000000	     -5.90751214	     -2.99294196	     -1.74431957	      1.14677270	      0.94143304	     -0.27895873	      7.51216515	      3.68949824	     -6.06724829	    -11.79411737	     10.70599054	     -2.52542611	      7.88647970	     -4.47045857	     -5.35048213	    -13.83630551	     11.33186605	     -3.76104336	     -0.83233833	      0.57963199	     -0.37151057
      0.17000000	     -5.91132348	     -3.00453499	     -1.79386302	      1.14680607	      0.94143056	     -0.27891713	      7.48894763	      3.71337887	     -5.97582550	    -11.74520411	     10.68811902	     -2.53205526	      7.88097569	     -4.49043931	     -5.42074807	    -13.83902562	     11.35831314	     -3.77579756	     -0.80808918	      0.60451912	     -0.36426978
      0.18000000	     -5.91245693	     -3.00165928	     -1.82126005	      1.14681153	      0.94143303	     -0.27892184	      7.49179908	      3.71160574	     -5.96306764	    -11.74600961	     10.68517404	     -2.53514677	      7.86882917	     -4.48706725	     -5.44218691	    -13.82408278	     11.35964464	     -3.77720431	     -0.79120440	      0.61318438	     -0.38703997
      0.19000000	     -5.91629307	     -2.99060549	     -1.87796657	      1.14681018	      0.94143746	     -0.27888785	      7.49872824	      3.70629839	     -5.88609170	    -11.74664768	     10.67839872	     -2.54779946	      7.85212563	     -4.48079834	     -5.51645769	    -13.80368620	     11.35210024	     -3.78213278	     -0.76956015	      0.61319720	     -0.36167672
      0.20000000	     -5.91067164	     -2.98925625	     -1.90897531	      1.14675478	      0.94145357	     -0.27888204	      7.50853565	      3.70657895	     -5.85769763	    -11.76612422	     10.67459667	     -2.55085654	      7.83770034	     -4.48026161	     -5.54119361	    -13.79195260	     11.35239367	     -3.78365734	     -0.76754510	      0.62234405	     -0.38644347
      0.21000000	     -5.89878819	     -2.97881587	     -1.99395112	      1.14666475	      0.94148749	     -0.27880762	      7.51956205	      3.70492742	     -5.74473442	    -11.79211850	     10.67044410	     -2.56158793	      7.80701576	     -4.47835826	     -5.64562710	    -13.77504012	     11.34402948	     -3.78878661	     -0.77857962	      0.62298805	     -0.32636671
      0.22000000	     -5.87921043	     -2.97438089	     -2.06356824	      1.14654769	      0.94153304	     -0.27875618	      7.52679020	      3.70640697	     -5.65440018	    -11.82379290	     10.66492244	     -2.57020164	      7.77514357	     -4.47978229	     -5.72054783	    -13.76374056	     11.33834766	     -3.79190269	     -0.80243098	      0.63084638	     -0.29648582
      0.23000000	     -5.86432510	     -2.97595455	     -2.10914408	      1.14640518	      0.94157057	     -0.27873690	      7.54299921	      3.71072415	     -5.60020476	    -11.86112116	     10.65625569	     -2.57200879	      7.75746094	     -4.48340975	     -5.75477105	    -13.75806680	     11.33579454	     -3.79293510	     -0.82582908	      0.64575486	     -0.31025747
      0.24000000	     -5.84562689	     -2.97366573	     -2.20745429	      1.14630888	      0.94161196	     -0.27863304	      7.54772456	      3.71937724	     -5.47642837	    -11.88763561	     10.65241687	     -2.57682823	      7.72411411	     -4.49360769	     -5.86867045	    -13.75542464	     11.33486889	     -3.79889836	     -0.84451661	      0.65511468	     -0.23007836
      0.25000000	     -5.83111286	     -2.97354279	     -2.27488286	      1.14621240	      0.94164247	     -0.27857080	      7.55662437	      3.72596311	     -5.39559514	    -11.91572256	     10.64705756	     -2.58183217	      7.70352533	     -4.50048027	     -5.93216234	    -13.75741106	     11.33419084	     -3.80163534	     -0.86042137	      0.66637734	     -0.20225354
      0.26000000	     -5.82204471	     -2.97614839	     -2.31483350	      1.14614551	      0.94165837	     -0.27854395	      7.56792144	      3.73109611	     -5.36062493	    -11.94295750	     10.64195177	     -2.58283056	      7.69314673	     -4.50581652	     -5.95406000	    -13.76238928	     11.33530806	     -3.80285718	     -0.86502525	      0.68024398	     -0.21628211
